<svg xmlns="http://www.w3.org/2000/svg" viewBox="0 0 640 360">
  <rect width="640" height="360" fill="#c9efff"/>
  <rect y="180" width="640" height="180" fill="#d3f2a3"/>
  <rect y="238" width="640" height="122" fill="#92cf5d"/>
  <rect x="20" y="260" width="60" height="14" fill="#fff7dd"/>
  <rect x="88" y="272" width="32" height="10" fill="#fff7dd"/>
  <rect x="134" y="248" width="18" height="42" fill="#6f461c"/>
  <polygon points="143,166 104,248 182,248" fill="#3f8b2e"/>
  <polygon points="143,136 114,210 172,210" fill="#4aa534"/>
  <rect x="520" y="120" width="18" height="120" fill="#6f461c"/>
  <polygon points="529,40 480,140 578,140" fill="#377727"/>
  <polygon points="529,80 492,176 566,176" fill="#4aa534"/>
  <rect x="72" y="110" width="20" height="130" fill="#6f461c"/>
  <polygon points="82,35 30,145 134,145" fill="#2f6f1f"/>
  <polygon points="82,75 42,185 122,185" fill="#449e31"/>
  <rect x="228" y="146" width="20" height="110" fill="#6f461c"/>
  <polygon points="238,74 190,170 286,170" fill="#377727"/>
  <polygon points="238,112 202,202 274,202" fill="#4aa534"/>
  <rect x="390" y="156" width="18" height="100" fill="#6f461c"/>
  <polygon points="399,88 354,172 444,172" fill="#377727"/>
  <polygon points="399,126 366,204 432,204" fill="#4aa534"/>
  <polygon points="320,150 246,268 394,268" fill="#82cd47"/>
  <polygon points="320,162 276,268 364,268" fill="#6ab238"/>
  <rect x="316" y="182" width="10" height="86" fill="#5f6f2b"/>
  <rect x="470" y="162" width="116" height="106" rx="6" fill="#7a4a20" stroke="#3a240f" stroke-width="6"/>
  <rect x="485" y="178" width="88" height="76" fill="#a16a2d"/>
  <text x="529" y="232" text-anchor="middle" font-family="Verdana, Arial, sans-serif" font-weight="900" font-size="40" fill="#ffde5f">0%</text>
  <circle cx="174" cy="276" r="18" fill="#6b4b27"/>
  <circle cx="196" cy="280" r="18" fill="#6b4b27"/>
  <circle cx="218" cy="276" r="18" fill="#6b4b27"/>
  <circle cx="186" cy="300" r="18" fill="#6b4b27"/>
  <circle cx="208" cy="302" r="18" fill="#6b4b27"/>
  <polygon points="197,240 178,296 216,296" fill="#ff7a18"/>
  <polygon points="197,252 186,292 208,292" fill="#ffd34d"/>
  <polygon points="214,252 196,296 232,296" fill="#ff9932"/>
  <rect y="320" width="640" height="40" fill="#76bb41"/>
</svg>